# xmcd
#
# Track frame offsets:
#	150
#	9810
#	23116
#	44289
#	58888
#	70927
#	84588
#	108008
#	122266
#	135210
#	147622
#	165709
#	180655
#
# Disc length: 2676 seconds
#
# Revision: 0
# Processed by: cddbd v1.5.2PL0 Copyright (c) Steve Scherf et al.
# Submitted via: EasyCDDAExtractor 2010.4.0.0
#
DISCID=a10a720d
DTITLE=Slovak Tango - Prečo tak pozde...
DYEAR=2011
DGENRE=Tango
TTITLE0=Len bez ženy
TTITLE1=Tak nekonečne krásna
TTITLE2=Saigon
TTITLE3=Anča, Anča, Hana
TTITLE4=Spev to je môj život
TTITLE5=Keď harmonika tíško znie
TTITLE6=Nie som ja ešte tak starý
TTITLE7=Marína
TTITLE8=Ty sa mi ľúbiš
TTITLE9=Prečo sa máme rozisť
TTITLE10=Prečo tak pozde krásna pani
TTITLE11=Nečakaj ma už nikdy
TTITLE12=Biele margaréty
EXTD=
EXTT0=
EXTT1=
EXTT2=
EXTT3=
EXTT4=
EXTT5=
EXTT6=
EXTT7=
EXTT8=
EXTT9=
EXTT10=
EXTT11=
EXTT12=
PLAYORDER=
